<svg xmlns="http://www.w3.org/2000/svg" xmlns:xlink="http://www.w3.org/1999/xlink" version="1.1" x="0px" y="0px" viewBox="0 0 100 100" enable-background="new 0 0 100 100" xml:space="preserve"><g><path fill="#000000" d="M89.6,25.1c-2.1-2.2,0,0-3,3c-3,3-0.2,8.3-0.2,8.3C93.3,33.6,91.5,27.2,89.6,25.1z"></path><path fill="#000000" d="M86,38.1c0.1-0.3,0.2-0.5,0.2-0.5C86.2,37.8,86.1,38,86,38.1z"></path><path fill="#000000" d="M83.1,39.9c0.9-6.6-6-6.8-5.8-6.9c0,0,0.3,1.7,1,3.4C79.1,38.1,80.4,40,83.1,39.9z"></path><path fill="#000000" d="M80.3,45.5c1.7-6.3-5.1-7.5-4.9-7.6c0,0,0.1,1.7,0.6,3.5C76.6,43.2,77.6,45.2,80.3,45.5z"></path><path fill="#000000" d="M76.9,50.6c2.5-6-4.1-8.1-4-8.1c0,0-0.2,1.6,0.2,3.5C73.4,47.9,74.2,50,76.9,50.6z"></path><path fill="#000000" d="M72.9,55.3c3.2-5.6-3-8.5-2.9-8.5c0,0-0.4,1.6-0.3,3.5C69.8,52.1,70.3,54.3,72.9,55.3z"></path><path fill="#000000" d="M68.3,59.4c3.9-5.2-2-8.8-1.8-8.8c0,0-0.6,1.5-0.7,3.4C65.6,55.9,65.8,58.1,68.3,59.4z"></path><path fill="#000000" d="M63.2,62.9c4.5-4.7-0.8-9-0.7-9c0,0-0.7,1.5-1.2,3.3C61,59,60.9,61.3,63.2,62.9z"></path><path fill="#000000" d="M86.1,41.2c1.8,2.1,4.1,1.7,6,0.4c1.9-1.2,3.2-3.2,3.2-3.2C95.3,38.3,89.8,35.4,86.1,41.2z"></path><path fill="#000000" d="M83.3,47.2c1.5,2.3,3.9,2.2,5.9,1.2c2-0.9,3.6-2.7,3.6-2.7C92.8,45.6,87.7,42,83.3,47.2z"></path><path fill="#000000" d="M79.8,52.7c1.2,2.5,3.6,2.7,5.7,2c2.1-0.7,3.9-2.2,3.9-2.2C89.4,52.3,84.8,48.1,79.8,52.7z"></path><path fill="#000000" d="M75.7,57.6c0.9,2.6,3.2,3.1,5.4,2.7c2.2-0.4,4.1-1.7,4.1-1.7C85.2,58.5,81.2,53.7,75.7,57.6z"></path><path fill="#000000" d="M71,62c0.5,2.7,2.8,3.5,5,3.3c2.2-0.1,4.3-1.1,4.3-1.1C80.3,64.1,76.9,58.9,71,62z"></path><path fill="#000000" d="M65.7,65.8c0.2,2.8,2.3,3.8,4.5,3.9c2.2,0.2,4.4-0.6,4.4-0.6C74.7,69,72,63.4,65.7,65.8z"></path><path fill="#000000" d="M13.6,36.4c0,0,2.8-5.2-0.2-8.3c-3-3-0.9-5.3-3-3C8.4,27.2,6.7,33.6,13.6,36.4z"></path><path fill="#000000" d="M13.9,38.1c-0.1-0.2-0.1-0.3-0.2-0.5C13.8,37.6,13.8,37.8,13.9,38.1z"></path><path fill="#000000" d="M64,74.6c-4.3-0.8-8.3-1.8-12-3C69,64.5,81.7,50.4,86,38.1c-1.3,3.3-9.6,23.1-36,32.8   c-26.4-9.6-34.8-29.4-36-32.8c4.3,12.2,17,26.4,33.9,33.5c-3.7,1.2-7.6,2.2-12,3c-1,0.1-0.9,1.4,0.1,1.2c4.9-0.6,9.5-1.7,13.9-3.4   c4.4,1.7,9.1,2.8,13.9,3.4C64.9,76,65.1,74.8,64,74.6z"></path><path fill="#000000" d="M21.7,36.4c0.8-1.8,1-3.4,1-3.4c0.1,0.1-6.8,0.4-5.8,6.9C19.6,40,20.9,38.1,21.7,36.4z"></path><path fill="#000000" d="M19.6,45.5c2.7-0.3,3.8-2.3,4.3-4.1c0.5-1.8,0.6-3.5,0.6-3.5C24.7,38,17.9,39.2,19.6,45.5z"></path><path fill="#000000" d="M23.1,50.6c2.7-0.6,3.5-2.7,3.8-4.6c0.3-1.9,0.2-3.5,0.2-3.5C27.2,42.6,20.6,44.6,23.1,50.6z"></path><path fill="#000000" d="M27.1,55.3c2.6-0.9,3.1-3.1,3.2-5c0.1-1.9-0.3-3.5-0.3-3.5C30.2,46.8,23.9,49.6,27.1,55.3z"></path><path fill="#000000" d="M34.3,54c-0.2-1.9-0.7-3.4-0.7-3.4c0.1,0-5.7,3.6-1.8,8.8C34.2,58.1,34.4,55.9,34.3,54z"></path><path fill="#000000" d="M38.6,57.2c-0.4-1.9-1.1-3.3-1.2-3.3c0.1,0-5.2,4.3-0.7,9C39.1,61.3,39,59,38.6,57.2z"></path><path fill="#000000" d="M13.9,41.2c-3.7-5.8-9.2-2.9-9.2-2.7c0,0,1.3,2,3.2,3.2C9.7,42.9,12.1,43.4,13.9,41.2z"></path><path fill="#000000" d="M16.7,47.2c-4.3-5.2-9.4-1.6-9.5-1.5c0,0,1.6,1.8,3.6,2.7C12.8,49.4,15.2,49.5,16.7,47.2z"></path><path fill="#000000" d="M20.1,52.7c-4.9-4.6-9.5-0.4-9.5-0.2c0,0,1.8,1.5,3.9,2.2C16.6,55.3,18.9,55.1,20.1,52.7z"></path><path fill="#000000" d="M24.3,57.6c-5.5-3.9-9.5,0.9-9.5,1c0,0,1.9,1.3,4.1,1.7C21.1,60.7,23.4,60.2,24.3,57.6z"></path><path fill="#000000" d="M29,62c-5.9-3.2-9.3,2.1-9.3,2.2c0,0,2.1,1,4.3,1.1C26.2,65.5,28.5,64.7,29,62z"></path><path fill="#000000" d="M25.3,69.2c0,0,2.2,0.8,4.4,0.6c2.2-0.1,4.4-1.2,4.5-3.9C28,63.4,25.3,69,25.3,69.2z"></path></g></svg>